<?xml version="1.0" standalone="no"?>
<!--
  ~ Copyright 2022 Crown Copyright
  ~
  ~  Licensed under the Apache License, Version 2.0 (the "License");
  ~  you may not use this file except in compliance with the License.
  ~  You may obtain a copy of the License at
  ~
  ~  http://www.apache.org/licenses/LICENSE-2.0
  ~
  ~  Unless required by applicable law or agreed to in writing, software
  ~  distributed under the License is distributed on an "AS IS" BASIS,
  ~  WITHOUT WARRANTIES OR CONDITIONS OF ANY KIND, either express or implied.
  ~  See the License for the specific language governing permissions and
  ~  limitations under the License.
  -->

<!DOCTYPE svg PUBLIC "-//W3C//DTD SVG 20010904//EN"
 "http://www.w3.org/TR/2001/REC-SVG-20010904/DTD/svg10.dtd">
<svg version="1.0" xmlns="http://www.w3.org/2000/svg"
 width="350.000000pt" height="350.000000pt" viewBox="0 0 350.000000 350.000000"
 preserveAspectRatio="xMidYMid meet">
<metadata>
Created by potrace 1.14, written by Peter Selinger 2001-2017
</metadata>
<g transform="translate(0.000000,350.000000) scale(0.100000,-0.100000)"
fill="#000000" stroke="none">
<path d="M752 3419 c90 -117 219 -250 296 -309 100 -75 185 -112 375 -162 l49
-13 4 -230 c5 -238 13 -336 37 -465 84 -441 360 -612 922 -571 360 26 618 72
765 138 122 54 213 108 278 162 l22 19 0 756 0 756 -1405 0 -1406 0 63 -81z"/>
<path d="M0 1060 l0 -1060 1403 0 1402 1 -140 137 c-184 180 -379 334 -818
648 -419 298 -516 371 -877 659 -259 207 -414 327 -515 399 -87 61 -329 213
-393 245 l-62 31 0 -1060z"/>
</g>
</svg>
