<?xml version="1.0" encoding="utf-8"?>
<!--
  ~ Copyright 2022 Crown Copyright
  ~
  ~  Licensed under the Apache License, Version 2.0 (the "License");
  ~  you may not use this file except in compliance with the License.
  ~  You may obtain a copy of the License at
  ~
  ~  http://www.apache.org/licenses/LICENSE-2.0
  ~
  ~  Unless required by applicable law or agreed to in writing, software
  ~  distributed under the License is distributed on an "AS IS" BASIS,
  ~  WITHOUT WARRANTIES OR CONDITIONS OF ANY KIND, either express or implied.
  ~  See the License for the specific language governing permissions and
  ~  limitations under the License.
-->

<!-- Generator: Adobe Illustrator 25.4.1, SVG Export Plug-In . SVG Version: 6.00 Build 0)  -->
<svg version="1.1" id="Layer_1" xmlns="http://www.w3.org/2000/svg" xmlns:xlink="http://www.w3.org/1999/xlink" x="0px" y="0px"
	 viewBox="0 0 600 600" style="enable-background:new 0 0 600 600;" xml:space="preserve">
<style type="text/css">
	.st0{opacity:0.4;fill:url(#SVGID_1_);}
	.st1{opacity:0.4;fill:url(#SVGID_00000137127275929352452970000000867297481562414994_);}
	.st2{opacity:0.4;fill:url(#SVGID_00000040577388839041922160000012520585338824822459_);}
	.st3{opacity:0.4;fill:url(#SVGID_00000103967057434891563280000010919735094159983797_);}
	.st4{opacity:0.4;fill:url(#SVGID_00000146498039864043784510000010331336671924864649_);}
	.st5{opacity:0.4;fill:url(#SVGID_00000150811738843270314170000002715793654967330224_);}
	.st6{opacity:0.4;fill:url(#SVGID_00000091696224860319407360000014147520470628523447_);}
	.st7{fill:url(#SVGID_00000096759003203827721520000008811145981765023388_);}
	.st8{fill:url(#SVGID_00000120533334945911886100000008924168077560361909_);}
	.st9{fill:url(#SVGID_00000157301273068951000000000017135291769550227881_);}
	.st10{fill:url(#SVGID_00000115513895083068703060000017309853945431140510_);}
	.st11{fill:url(#SVGID_00000074418139305098460190000007635133268287767182_);}
	.st12{fill:url(#SVGID_00000023262828250716855730000008743686763921740704_);}
	.st13{fill:url(#SVGID_00000165197194136338086020000010363102496011656368_);}
	.st14{fill:url(#SVGID_00000116932570286518648520000007671201838026207398_);}
	.st15{fill:url(#SVGID_00000119837828555370284010000007554955247330154172_);}
	.st16{fill:url(#SVGID_00000121263457647888350060000016056209847436973465_);}
	.st17{fill:url(#SVGID_00000146491086675183414050000003849979860547276957_);}
	.st18{fill:url(#SVGID_00000047765335621604602350000005873756002521091991_);}
	.st19{fill:url(#SVGID_00000088105237523183536320000003116156882618570896_);}
	.st20{fill:url(#SVGID_00000085233268993914374210000006120049932665544374_);}
	.st21{fill:url(#SVGID_00000146457555575972600800000003943999628051848852_);}
	.st22{fill:url(#SVGID_00000110454468894739065980000011669208223726944178_);}
	.st23{fill:url(#SVGID_00000158733213013350253300000002097446816954382221_);}
	.st24{fill:url(#SVGID_00000030483318458855458310000008772089177652948885_);}
</style>
<g>
	<g>
		<path d="M455.83,466.65h-25.61l-16.21-49.63h-55.2l-15.98,49.63h-25.16l54.75-163.31h28.66L455.83,466.65z M406.5,394.87
			l-20.22-60.85l-19.95,60.85H406.5z"/>
		<path d="M501.16,466.65h-25.37V303.34h25.37V466.65z"/>
	</g>
	<linearGradient id="SVGID_1_" gradientUnits="userSpaceOnUse" x1="23.2703" y1="421.5619" x2="606.5678" y2="89.5777">
		<stop  offset="0.0554" style="stop-color:#95D3E3"/>
		<stop  offset="0.3093" style="stop-color:#755DA1"/>
		<stop  offset="0.4359" style="stop-color:#672783"/>
		<stop  offset="0.494" style="stop-color:#712581"/>
		<stop  offset="0.5929" style="stop-color:#8C217D"/>
		<stop  offset="0.7196" style="stop-color:#B71977"/>
		<stop  offset="0.8349" style="stop-color:#E51170"/>
	</linearGradient>
	<path class="st0" d="M83.22,387.56L83.22,387.56c4.51,7.81,14.5,10.48,22.3,5.97l0,0c7.81-4.5,10.48-14.5,5.97-22.29l0,0
		c-4.51-7.82-14.49-10.49-22.3-5.98l0,0C81.39,369.76,78.71,379.74,83.22,387.56z"/>

		<linearGradient id="SVGID_00000178885554923360153030000015940034217334771892_" gradientUnits="userSpaceOnUse" x1="1.0125" y1="382.4467" x2="584.2708" y2="50.4848">
		<stop  offset="0.0554" style="stop-color:#95D3E3"/>
		<stop  offset="0.3093" style="stop-color:#755DA1"/>
		<stop  offset="0.4359" style="stop-color:#672783"/>
		<stop  offset="0.494" style="stop-color:#712581"/>
		<stop  offset="0.5929" style="stop-color:#8C217D"/>
		<stop  offset="0.7196" style="stop-color:#B71977"/>
		<stop  offset="0.8349" style="stop-color:#E51170"/>
	</linearGradient>
	<path style="opacity:0.4;fill:url(#SVGID_00000178885554923360153030000015940034217334771892_);" d="M170.03,280.43
		c-0.19,5.31,3.95,9.76,9.26,9.95c5.3,0.19,9.76-3.95,9.94-9.26c0.2-5.29-3.94-9.75-9.25-9.94
		C174.68,270.98,170.22,275.13,170.03,280.43z"/>

		<linearGradient id="SVGID_00000140696225082753283250000016109564180904568195_" gradientUnits="userSpaceOnUse" x1="-20.805" y1="344.127" x2="562.4871" y2="12.1459">
		<stop  offset="0.0554" style="stop-color:#95D3E3"/>
		<stop  offset="0.3093" style="stop-color:#755DA1"/>
		<stop  offset="0.4359" style="stop-color:#672783"/>
		<stop  offset="0.494" style="stop-color:#712581"/>
		<stop  offset="0.5929" style="stop-color:#8C217D"/>
		<stop  offset="0.7196" style="stop-color:#B71977"/>
		<stop  offset="0.8349" style="stop-color:#E51170"/>
	</linearGradient>
	<path style="opacity:0.4;fill:url(#SVGID_00000140696225082753283250000016109564180904568195_);" d="M91.16,275.49
		c-0.17,4.49,3.34,8.25,7.84,8.42c4.49,0.16,8.26-3.35,8.43-7.83c0.16-4.49-3.35-8.26-7.84-8.43
		C95.09,267.48,91.31,271,91.16,275.49z"/>

		<linearGradient id="SVGID_00000077323766304842353330000013683811772141043349_" gradientUnits="userSpaceOnUse" x1="96.28" y1="549.8659" x2="679.5921" y2="217.8734">
		<stop  offset="0.0554" style="stop-color:#95D3E3"/>
		<stop  offset="0.3093" style="stop-color:#755DA1"/>
		<stop  offset="0.4359" style="stop-color:#672783"/>
		<stop  offset="0.494" style="stop-color:#712581"/>
		<stop  offset="0.5929" style="stop-color:#8C217D"/>
		<stop  offset="0.7196" style="stop-color:#B71977"/>
		<stop  offset="0.8349" style="stop-color:#E51170"/>
	</linearGradient>
	<path style="opacity:0.4;fill:url(#SVGID_00000077323766304842353330000013683811772141043349_);" d="M241.82,462.11
		c-0.16,4.49,3.35,8.27,7.83,8.43c4.49,0.16,8.26-3.34,8.43-7.85c0.16-4.48-3.35-8.26-7.84-8.42
		C245.75,454.11,241.98,457.62,241.82,462.11z"/>

		<linearGradient id="SVGID_00000099660356156716941140000000900621397308906657_" gradientUnits="userSpaceOnUse" x1="45.4076" y1="460.4919" x2="628.6879" y2="128.5175">
		<stop  offset="0.0554" style="stop-color:#95D3E3"/>
		<stop  offset="0.3093" style="stop-color:#755DA1"/>
		<stop  offset="0.4359" style="stop-color:#672783"/>
		<stop  offset="0.494" style="stop-color:#712581"/>
		<stop  offset="0.5929" style="stop-color:#8C217D"/>
		<stop  offset="0.7196" style="stop-color:#B71977"/>
		<stop  offset="0.8349" style="stop-color:#E51170"/>
	</linearGradient>
	<path style="opacity:0.4;fill:url(#SVGID_00000099660356156716941140000000900621397308906657_);" d="M476.23,209.49
		c-0.2,5.3,3.95,9.76,9.25,9.94c5.3,0.2,9.76-3.94,9.95-9.25c0.19-5.31-3.95-9.76-9.26-9.95
		C480.87,200.03,476.41,204.18,476.23,209.49z"/>

		<linearGradient id="SVGID_00000062150165549127102370000006849226779136391350_" gradientUnits="userSpaceOnUse" x1="47.5234" y1="464.3425" x2="630.8878" y2="132.3202">
		<stop  offset="0.0554" style="stop-color:#95D3E3"/>
		<stop  offset="0.3093" style="stop-color:#755DA1"/>
		<stop  offset="0.4359" style="stop-color:#672783"/>
		<stop  offset="0.494" style="stop-color:#712581"/>
		<stop  offset="0.5929" style="stop-color:#8C217D"/>
		<stop  offset="0.7196" style="stop-color:#B71977"/>
		<stop  offset="0.8349" style="stop-color:#E51170"/>
	</linearGradient>
	<path style="opacity:0.4;fill:url(#SVGID_00000062150165549127102370000006849226779136391350_);" d="M453.79,229.03
		c-0.14,3.73,2.78,6.87,6.52,7c3.74,0.14,6.87-2.78,7-6.51c0.14-3.75-2.78-6.87-6.52-7.02
		C457.07,222.37,453.93,225.28,453.79,229.03z"/>

		<linearGradient id="SVGID_00000010996329310966793650000005185550249199468177_" gradientUnits="userSpaceOnUse" x1="-76.407" y1="246.3991" x2="506.829" y2="-85.5501">
		<stop  offset="0.0554" style="stop-color:#95D3E3"/>
		<stop  offset="0.3093" style="stop-color:#755DA1"/>
		<stop  offset="0.4359" style="stop-color:#672783"/>
		<stop  offset="0.494" style="stop-color:#712581"/>
		<stop  offset="0.5929" style="stop-color:#8C217D"/>
		<stop  offset="0.7196" style="stop-color:#B71977"/>
		<stop  offset="0.8349" style="stop-color:#E51170"/>
	</linearGradient>
	<path style="opacity:0.4;fill:url(#SVGID_00000010996329310966793650000005185550249199468177_);" d="M188.75,92.94
		c-3.62-3.88-9.7-4.1-13.59-0.48c-3.88,3.61-4.11,9.69-0.49,13.58c3.62,3.89,9.7,4.11,13.59,0.49
		C192.14,102.91,192.37,96.83,188.75,92.94z"/>
	<g>

			<linearGradient id="SVGID_00000147911991776154451110000006874723432655077305_" gradientUnits="userSpaceOnUse" x1="-19.3997" y1="261.186" x2="590.2473" y2="121.5716">
			<stop  offset="0.0554" style="stop-color:#95D3E3"/>
			<stop  offset="0.3093" style="stop-color:#755DA1"/>
			<stop  offset="0.4359" style="stop-color:#672783"/>
			<stop  offset="0.494" style="stop-color:#712581"/>
			<stop  offset="0.5929" style="stop-color:#8C217D"/>
			<stop  offset="0.7196" style="stop-color:#B71977"/>
			<stop  offset="0.8349" style="stop-color:#E51170"/>
		</linearGradient>
		<path style="fill:url(#SVGID_00000147911991776154451110000006874723432655077305_);" d="M94.21,248.88
			c8.35,3.4,17.88-0.6,21.29-8.95c3.41-8.35-0.6-17.88-8.95-21.29c-8.35-3.41-17.88,0.6-21.29,8.95
			C81.85,235.93,85.86,245.46,94.21,248.88z"/>

			<linearGradient id="SVGID_00000089569703380889099340000008155150850995794098_" gradientUnits="userSpaceOnUse" x1="-36.3211" y1="187.3569" x2="573.3455" y2="47.738">
			<stop  offset="0.0554" style="stop-color:#95D3E3"/>
			<stop  offset="0.3093" style="stop-color:#755DA1"/>
			<stop  offset="0.4359" style="stop-color:#672783"/>
			<stop  offset="0.494" style="stop-color:#712581"/>
			<stop  offset="0.5929" style="stop-color:#8C217D"/>
			<stop  offset="0.7196" style="stop-color:#B71977"/>
			<stop  offset="0.8349" style="stop-color:#E51170"/>
		</linearGradient>
		<path style="fill:url(#SVGID_00000089569703380889099340000008155150850995794098_);" d="M202.6,149.14
			c8.32-3.5,12.21-13.06,8.73-21.39c-3.5-8.31-13.07-12.21-21.39-8.72c-8.32,3.5-12.21,13.07-8.72,21.39
			C184.72,148.73,194.28,152.64,202.6,149.14z"/>

			<linearGradient id="SVGID_00000177477242627757600480000000385617591171679381_" gradientUnits="userSpaceOnUse" x1="0.5258" y1="348.1426" x2="610.129" y2="208.5383">
			<stop  offset="0.0554" style="stop-color:#95D3E3"/>
			<stop  offset="0.3093" style="stop-color:#755DA1"/>
			<stop  offset="0.4359" style="stop-color:#672783"/>
			<stop  offset="0.494" style="stop-color:#712581"/>
			<stop  offset="0.5929" style="stop-color:#8C217D"/>
			<stop  offset="0.7196" style="stop-color:#B71977"/>
			<stop  offset="0.8349" style="stop-color:#E51170"/>
		</linearGradient>
		<path style="fill:url(#SVGID_00000177477242627757600480000000385617591171679381_);" d="M216.33,289.98
			c-7.04,2.95-11.39,9.52-12,16.63H88.61c-0.81-4.48-4.56-7.94-9.28-7.94c-5.31,0-9.61,4.29-9.61,9.6c0,5.31,4.3,9.61,9.61,9.61
			c4.71,0,8.46-3.46,9.28-7.94h115.72c0.17,2.03,0.56,4.05,1.4,6.03c4.26,10.11,15.89,14.85,25.99,10.61
			c10.11-4.25,14.85-15.89,10.61-25.99C238.07,290.47,226.44,285.72,216.33,289.98z"/>

			<linearGradient id="SVGID_00000130637417041464433210000002947552118597978531_" gradientUnits="userSpaceOnUse" x1="-19.2292" y1="261.884" x2="590.3802" y2="122.2782">
			<stop  offset="0.0554" style="stop-color:#95D3E3"/>
			<stop  offset="0.3093" style="stop-color:#755DA1"/>
			<stop  offset="0.4359" style="stop-color:#672783"/>
			<stop  offset="0.494" style="stop-color:#712581"/>
			<stop  offset="0.5929" style="stop-color:#8C217D"/>
			<stop  offset="0.7196" style="stop-color:#B71977"/>
			<stop  offset="0.8349" style="stop-color:#E51170"/>
		</linearGradient>
		<path style="fill:url(#SVGID_00000130637417041464433210000002947552118597978531_);" d="M275.37,280.98
			c10.1-4.25,14.85-15.89,10.6-26c-2.73-6.49-8.51-10.72-14.97-11.83V128.13c3.47-1.45,5.91-4.87,5.91-8.86
			c0-5.31-4.31-9.62-9.62-9.62c-5.31,0-9.61,4.31-9.61,9.62c0,4.26,2.82,7.75,6.65,9.01v114.88c-1.47,0.25-2.93,0.63-4.36,1.23
			c-10.11,4.24-14.85,15.89-10.6,25.99C253.62,280.47,265.27,285.22,275.37,280.98z"/>

			<linearGradient id="SVGID_00000080918293128253193530000006862887118401080500_" gradientUnits="userSpaceOnUse" x1="27.6507" y1="466.593" x2="637.2594" y2="326.9875">
			<stop  offset="0.0554" style="stop-color:#95D3E3"/>
			<stop  offset="0.3093" style="stop-color:#755DA1"/>
			<stop  offset="0.4359" style="stop-color:#672783"/>
			<stop  offset="0.494" style="stop-color:#712581"/>
			<stop  offset="0.5929" style="stop-color:#8C217D"/>
			<stop  offset="0.7196" style="stop-color:#B71977"/>
			<stop  offset="0.8349" style="stop-color:#E51170"/>
		</linearGradient>
		<path style="fill:url(#SVGID_00000080918293128253193530000006862887118401080500_);" d="M302.96,303.59
			c-4.36,1.83-6.42,6.86-4.58,11.22c0.04,0.1,0.13,0.17,0.18,0.26l-19.93,20.57c-5.35-3.54-12.3-4.42-18.65-1.75
			c-10.11,4.25-14.85,15.89-10.6,25.99c2.72,6.49,8.5,10.72,14.96,11.83v121.22c-3.7,1.34-6.39,4.79-6.39,8.95
			c0,5.31,4.3,9.61,9.61,9.61c5.31,0,9.62-4.31,9.62-9.61c0-4.09-2.58-7.52-6.17-8.91V371.71c1.47-0.25,2.94-0.62,4.37-1.23
			c10.1-4.25,14.85-15.89,10.6-25.99c-0.71-1.69-1.69-3.17-2.78-4.55l19.87-20.49c2.03,0.81,4.37,0.87,6.55-0.05
			c4.37-1.83,6.42-6.86,4.58-11.23C312.36,303.79,307.32,301.74,302.96,303.59z"/>

			<linearGradient id="SVGID_00000123402582395405405350000017849023963482917527_" gradientUnits="userSpaceOnUse" x1="-29.5216" y1="216.8735" x2="580.0641" y2="77.2732">
			<stop  offset="0.0554" style="stop-color:#95D3E3"/>
			<stop  offset="0.3093" style="stop-color:#755DA1"/>
			<stop  offset="0.4359" style="stop-color:#672783"/>
			<stop  offset="0.494" style="stop-color:#712581"/>
			<stop  offset="0.5929" style="stop-color:#8C217D"/>
			<stop  offset="0.7196" style="stop-color:#B71977"/>
			<stop  offset="0.8349" style="stop-color:#E51170"/>
		</linearGradient>
		<path style="fill:url(#SVGID_00000123402582395405405350000017849023963482917527_);" d="M336.09,146.85
			c8.34,3.41,17.88-0.61,21.29-8.95c3.4-8.34-0.6-17.87-8.95-21.29c-8.35-3.4-17.88,0.6-21.29,8.96
			C323.73,133.92,327.74,143.44,336.09,146.85z"/>

			<linearGradient id="SVGID_00000093174466619771966490000000626740959893223592_" gradientUnits="userSpaceOnUse" x1="-7.7843" y1="311.8675" x2="601.8375" y2="172.2589">
			<stop  offset="0.0554" style="stop-color:#95D3E3"/>
			<stop  offset="0.3093" style="stop-color:#755DA1"/>
			<stop  offset="0.4359" style="stop-color:#672783"/>
			<stop  offset="0.494" style="stop-color:#712581"/>
			<stop  offset="0.5929" style="stop-color:#8C217D"/>
			<stop  offset="0.7196" style="stop-color:#B71977"/>
			<stop  offset="0.8349" style="stop-color:#E51170"/>
		</linearGradient>
		<path style="fill:url(#SVGID_00000093174466619771966490000000626740959893223592_);" d="M534.56,236.41
			c-8.42-3.25-17.87,0.93-21.12,9.34c-0.67,1.73-0.95,3.5-1.02,5.25h-127.3l55.54-55.55c6.33,6.02,16.32,6.04,22.63-0.11
			c6.44-6.31,6.57-16.63,0.27-23.09c-6.3-6.45-16.63-6.58-23.08-0.28c-5.83,5.69-6.45,14.66-1.87,21.11L380.68,251h-50.53
			c-0.3-1.04-0.81-1.97-1.47-2.87l66.39-66.39c3.74,2.54,8.79,2.33,12.11-0.99c3.76-3.75,3.76-9.84,0-13.59
			c-3.75-3.76-9.84-3.76-13.59,0c-3.41,3.4-3.55,8.66-0.77,12.42l-66.37,66.36c-0.63-0.43-1.23-0.93-1.92-1.19V197.1
			c6.34-1.24,11.96-5.53,14.57-11.95c4.14-10.16-0.73-21.74-10.88-25.89c-10.15-4.14-21.73,0.73-25.88,10.89
			c-4.14,10.14,0.74,21.73,10.88,25.87c1.53,0.62,3.08,0.98,4.64,1.21v47.49c-1.3,0.46-2.54,1.14-3.59,2.18
			c-3.75,3.76-3.75,9.84,0,13.6c3.76,3.75,9.84,3.75,13.6,0c1.76-1.76,2.63-4.05,2.73-6.36h182c0.88,5.57,4.55,10.56,10.18,12.73
			c8.42,3.25,17.87-0.94,21.12-9.34C547.15,249.11,542.95,239.66,534.56,236.41z"/>

			<linearGradient id="SVGID_00000019659882930007768720000016829049317251013036_" gradientUnits="userSpaceOnUse" x1="20.727" y1="436.3587" x2="630.3337" y2="296.7536">
			<stop  offset="0.0554" style="stop-color:#95D3E3"/>
			<stop  offset="0.3093" style="stop-color:#755DA1"/>
			<stop  offset="0.4359" style="stop-color:#672783"/>
			<stop  offset="0.494" style="stop-color:#712581"/>
			<stop  offset="0.5929" style="stop-color:#8C217D"/>
			<stop  offset="0.7196" style="stop-color:#B71977"/>
			<stop  offset="0.8349" style="stop-color:#E51170"/>
		</linearGradient>
		<path style="fill:url(#SVGID_00000019659882930007768720000016829049317251013036_);" d="M220.48,421.91
			c-0.99-0.38-1.99-0.61-2.99-0.83v-51.92c1.31-0.47,2.55-1.15,3.59-2.19c3.75-3.75,3.75-9.84,0-13.59c-3.75-3.76-9.83-3.76-13.59,0
			c-1.01,1.01-1.7,2.21-2.17,3.47h-42.73c-0.25-1.47-0.63-2.94-1.23-4.38c-4.25-10.1-15.89-14.85-26-10.6
			c-10.1,4.26-14.85,15.89-10.6,25.99c4.25,10.11,15.89,14.85,25.99,10.6c6.49-2.73,10.72-8.51,11.82-14.97h42.73
			c0.09,0.25,0.23,0.48,0.35,0.73l-68.16,68.17c-3.49-1.47-7.65-0.78-10.49,2.06c-3.75,3.75-3.75,9.83,0,13.59
			c3.75,3.75,9.83,3.75,13.59,0c3-3,3.49-7.44,1.7-11.03l68.1-68.11c0.15,0.07,0.27,0.15,0.42,0.21v51.7
			c-6.99,0.9-13.3,5.42-16.01,12.46c-3.94,10.22,1.14,21.71,11.37,25.67c10.22,3.95,21.71-1.14,25.67-11.37
			C235.79,437.35,230.7,425.86,220.48,421.91z"/>

			<linearGradient id="SVGID_00000069367932054421953510000001728433510130406568_" gradientUnits="userSpaceOnUse" x1="-24.348" y1="239.537" x2="585.2512" y2="99.9336">
			<stop  offset="0.0554" style="stop-color:#95D3E3"/>
			<stop  offset="0.3093" style="stop-color:#755DA1"/>
			<stop  offset="0.4359" style="stop-color:#672783"/>
			<stop  offset="0.494" style="stop-color:#712581"/>
			<stop  offset="0.5929" style="stop-color:#8C217D"/>
			<stop  offset="0.7196" style="stop-color:#B71977"/>
			<stop  offset="0.8349" style="stop-color:#E51170"/>
		</linearGradient>
		<path style="fill:url(#SVGID_00000069367932054421953510000001728433510130406568_);" d="M74.22,219.17
			c0-5.31-4.31-9.61-9.62-9.61c-5.31,0-9.61,4.3-9.61,9.61c0,5.31,4.3,9.61,9.61,9.61C69.91,228.77,74.22,224.47,74.22,219.17z"/>

			<linearGradient id="SVGID_00000170269325331085700300000004128739081495850378_" gradientUnits="userSpaceOnUse" x1="-19.9485" y1="258.7498" x2="589.6649" y2="119.1432">
			<stop  offset="0.0554" style="stop-color:#95D3E3"/>
			<stop  offset="0.3093" style="stop-color:#755DA1"/>
			<stop  offset="0.4359" style="stop-color:#672783"/>
			<stop  offset="0.494" style="stop-color:#712581"/>
			<stop  offset="0.5929" style="stop-color:#8C217D"/>
			<stop  offset="0.7196" style="stop-color:#B71977"/>
			<stop  offset="0.8349" style="stop-color:#E51170"/>
		</linearGradient>
		<path style="fill:url(#SVGID_00000170269325331085700300000004128739081495850378_);" d="M140.21,182.1l66.29,66.29
			c-0.44,0.64-0.91,1.25-1.18,1.97l-39.41-0.16c-0.81-6.95-5.19-13.26-12.13-16.1c-10.15-4.14-21.74,0.74-25.88,10.89
			c-4.14,10.14,0.73,21.73,10.88,25.87c10.15,4.14,21.74-0.73,25.88-10.87c0.42-1.04,0.69-2.08,0.93-3.14l39.73,0.16
			c0.47,1.26,1.15,2.46,2.17,3.48c3.75,3.75,9.83,3.75,13.59,0c3.75-3.75,3.75-9.83,0-13.6c-1.04-1.05-2.29-1.73-3.59-2.19v-45.33
			c1.66-0.24,3.31-0.61,4.93-1.29c10.1-4.25,14.85-15.88,10.6-26c-4.24-10.1-15.88-14.84-25.99-10.6
			c-10.12,4.25-14.86,15.89-10.61,25.99c2.64,6.3,8.17,10.52,14.4,11.77v45.5c-0.6,0.23-1.11,0.67-1.67,1.03l-66.64-66.64
			c1.8-3.6,1.31-8.04-1.69-11.04c-3.76-3.76-9.84-3.76-13.59,0c-3.75,3.74-3.75,9.83,0,13.59
			C130.81,185.27,136.44,185.34,140.21,182.1z"/>

			<linearGradient id="SVGID_00000166635289239977710380000014122361151598323334_" gradientUnits="userSpaceOnUse" x1="-36.1004" y1="187.9032" x2="573.4087" y2="48.3204">
			<stop  offset="0.0554" style="stop-color:#95D3E3"/>
			<stop  offset="0.3093" style="stop-color:#755DA1"/>
			<stop  offset="0.4359" style="stop-color:#672783"/>
			<stop  offset="0.494" style="stop-color:#712581"/>
			<stop  offset="0.5929" style="stop-color:#8C217D"/>
			<stop  offset="0.7196" style="stop-color:#B71977"/>
			<stop  offset="0.8349" style="stop-color:#E51170"/>
		</linearGradient>
		<path style="fill:url(#SVGID_00000166635289239977710380000014122361151598323334_);" d="M355.62,107.72
			c5.31,0.18,9.76-3.95,9.95-9.25c0.19-5.31-3.95-9.76-9.25-9.96c-5.31-0.19-9.76,3.95-9.95,9.25
			C346.18,103.07,350.32,107.52,355.62,107.72z"/>

			<linearGradient id="SVGID_00000012453561939337955840000013800922371269194156_" gradientUnits="userSpaceOnUse" x1="-17.0734" y1="271.6408" x2="592.6332" y2="132.0128">
			<stop  offset="0.0554" style="stop-color:#95D3E3"/>
			<stop  offset="0.3093" style="stop-color:#755DA1"/>
			<stop  offset="0.4359" style="stop-color:#672783"/>
			<stop  offset="0.494" style="stop-color:#712581"/>
			<stop  offset="0.5929" style="stop-color:#8C217D"/>
			<stop  offset="0.7196" style="stop-color:#B71977"/>
			<stop  offset="0.8349" style="stop-color:#E51170"/>
		</linearGradient>
		<path style="fill:url(#SVGID_00000012453561939337955840000013800922371269194156_);" d="M473.71,166.97
			c4.79,2.29,10.52,0.27,12.82-4.53c2.29-4.78,0.26-10.53-4.52-12.81c-4.79-2.29-10.53-0.27-12.83,4.53
			C466.9,158.93,468.93,164.68,473.71,166.97z"/>

			<linearGradient id="SVGID_00000151519266946012866000000007021248914341152406_" gradientUnits="userSpaceOnUse" x1="-29.841" y1="215.6366" x2="579.8225" y2="76.0184">
			<stop  offset="0.0554" style="stop-color:#95D3E3"/>
			<stop  offset="0.3093" style="stop-color:#755DA1"/>
			<stop  offset="0.4359" style="stop-color:#672783"/>
			<stop  offset="0.494" style="stop-color:#712581"/>
			<stop  offset="0.5929" style="stop-color:#8C217D"/>
			<stop  offset="0.7196" style="stop-color:#B71977"/>
			<stop  offset="0.8349" style="stop-color:#E51170"/>
		</linearGradient>
		<path style="fill:url(#SVGID_00000151519266946012866000000007021248914341152406_);" d="M173.46,178.6
			c5.3,0.2,9.76-3.95,9.95-9.25c0.2-5.3-3.95-9.76-9.26-9.95c-5.3-0.19-9.75,3.95-9.94,9.26
			C164.01,173.96,168.15,178.42,173.46,178.6z"/>

			<linearGradient id="SVGID_00000109727525681978154180000005307766221478989724_" gradientUnits="userSpaceOnUse" x1="-40.5319" y1="169.1741" x2="569.2276" y2="29.534">
			<stop  offset="0.0554" style="stop-color:#95D3E3"/>
			<stop  offset="0.3093" style="stop-color:#755DA1"/>
			<stop  offset="0.4359" style="stop-color:#672783"/>
			<stop  offset="0.494" style="stop-color:#712581"/>
			<stop  offset="0.5929" style="stop-color:#8C217D"/>
			<stop  offset="0.7196" style="stop-color:#B71977"/>
			<stop  offset="0.8349" style="stop-color:#E51170"/>
		</linearGradient>
		<path style="fill:url(#SVGID_00000109727525681978154180000005307766221478989724_);" d="M223.03,118.34
			c5.31,0.2,9.76-3.94,9.95-9.25c0.2-5.31-3.95-9.76-9.26-9.96c-5.3-0.18-9.75,3.96-9.94,9.26
			C213.58,113.69,217.72,118.15,223.03,118.34z"/>

			<linearGradient id="SVGID_00000026874004497740309420000017816871990421017264_" gradientUnits="userSpaceOnUse" x1="-30.0595" y1="214.6168" x2="579.5585" y2="75.009">
			<stop  offset="0.0554" style="stop-color:#95D3E3"/>
			<stop  offset="0.3093" style="stop-color:#755DA1"/>
			<stop  offset="0.4359" style="stop-color:#672783"/>
			<stop  offset="0.494" style="stop-color:#712581"/>
			<stop  offset="0.5929" style="stop-color:#8C217D"/>
			<stop  offset="0.7196" style="stop-color:#B71977"/>
			<stop  offset="0.8349" style="stop-color:#E51170"/>
		</linearGradient>
		<path style="fill:url(#SVGID_00000026874004497740309420000017816871990421017264_);" d="M302.38,146.55
			c4.48,0.16,8.26-3.35,8.42-7.83c0.17-4.49-3.34-8.27-7.83-8.43c-4.49-0.15-8.26,3.35-8.43,7.84
			C294.37,142.62,297.88,146.39,302.38,146.55z"/>

			<linearGradient id="SVGID_00000134228224727273463100000016073871304692875656_" gradientUnits="userSpaceOnUse" x1="-26.9151" y1="228.4978" x2="582.855" y2="88.8553">
			<stop  offset="0.0554" style="stop-color:#95D3E3"/>
			<stop  offset="0.3093" style="stop-color:#755DA1"/>
			<stop  offset="0.4359" style="stop-color:#672783"/>
			<stop  offset="0.494" style="stop-color:#712581"/>
			<stop  offset="0.5929" style="stop-color:#8C217D"/>
			<stop  offset="0.7196" style="stop-color:#B71977"/>
			<stop  offset="0.8349" style="stop-color:#E51170"/>
		</linearGradient>
		<path style="fill:url(#SVGID_00000134228224727273463100000016073871304692875656_);" d="M93.16,209.07
			c4.49,0.16,8.26-3.34,8.43-7.83c0.16-4.49-3.35-8.27-7.83-8.43c-4.49-0.16-8.26,3.35-8.43,7.83
			C85.16,205.12,88.66,208.9,93.16,209.07z"/>

			<linearGradient id="SVGID_00000086650071009528280120000004363311435207719852_" gradientUnits="userSpaceOnUse" x1="-26.2613" y1="230.8203" x2="583.2363" y2="91.2402">
			<stop  offset="0.0554" style="stop-color:#95D3E3"/>
			<stop  offset="0.3093" style="stop-color:#755DA1"/>
			<stop  offset="0.4359" style="stop-color:#672783"/>
			<stop  offset="0.494" style="stop-color:#712581"/>
			<stop  offset="0.5929" style="stop-color:#8C217D"/>
			<stop  offset="0.7196" style="stop-color:#B71977"/>
			<stop  offset="0.8349" style="stop-color:#E51170"/>
		</linearGradient>
		<path style="fill:url(#SVGID_00000086650071009528280120000004363311435207719852_);" d="M383.51,143.68
			c3.74,0.15,6.87-2.78,7.01-6.51c0.14-3.74-2.78-6.87-6.51-7.02c-3.74-0.13-6.87,2.79-7.01,6.53
			C376.86,140.41,379.78,143.55,383.51,143.68z"/>

			<linearGradient id="SVGID_00000042706680905397036350000017043995964696726919_" gradientUnits="userSpaceOnUse" x1="2.2176" y1="355.4834" x2="611.7342" y2="215.8989">
			<stop  offset="0.0554" style="stop-color:#95D3E3"/>
			<stop  offset="0.3093" style="stop-color:#755DA1"/>
			<stop  offset="0.4359" style="stop-color:#672783"/>
			<stop  offset="0.494" style="stop-color:#712581"/>
			<stop  offset="0.5929" style="stop-color:#8C217D"/>
			<stop  offset="0.7196" style="stop-color:#B71977"/>
			<stop  offset="0.8349" style="stop-color:#E51170"/>
		</linearGradient>
		<path style="fill:url(#SVGID_00000042706680905397036350000017043995964696726919_);" d="M107.95,324.56
			c-3.74-0.14-6.87,2.79-7,6.52c-0.15,3.73,2.77,6.87,6.51,7.01s6.87-2.77,7.01-6.51C114.61,327.84,111.69,324.7,107.95,324.56z"/>
	</g>
</g>
</svg>
